<?xml version="1.0" encoding="UTF-8"?>
<svg id="Layer_2" data-name="Layer 2" xmlns="http://www.w3.org/2000/svg" viewBox="0 0 207.35 131.58">
  <defs>
    <style>
      .cls-1 {
        fill: #1b512d;
      }

      .cls-1, .cls-2 {
        stroke-width: 0px;
      }

      .cls-2 {
        fill: #b1cf5f;
      }
    </style>
  </defs>
  <g id="Layer_1-2" data-name="Layer 1">
    <g>
      <path class="cls-2" d="m195.17,106c-9.82,13.27-24.21,21.88-40.56,24.33-3.08.45-6.17.67-9.23.67-13.83,0-27.11-4.58-38.02-13.2,3.53-3.32,7.24-6.96,11.08-10.9,1.24-1.27,2.45-2.52,3.65-3.74,8.56,5.94,19.07,8.43,29.53,6.84,10.88-1.6,20.5-7.39,27.08-16.22,6.55-8.85,9.28-19.71,7.65-30.63-.88-5.97-2.97-11.53-6.26-16.56-3.11-4.73-1.8-11.11,2.97-14.21,4.66-3.11,11.13-1.82,14.21,2.97,4.95,7.52,8.11,15.86,9.42,24.8,2.41,16.32-1.66,32.62-11.51,45.86Z"/>
      <path class="cls-1" d="m122.08,103.15c-1.19,1.23-2.41,2.47-3.65,3.74-3.84,3.95-7.55,7.58-11.08,10.9-1.88,1.79-3.72,3.47-5.48,5.07-6.35,5.78-14.53,8.72-22.75,8.72-7.68,0-15.36-2.57-21.64-7.71-8.7-7.09-17.1-14.66-24.94-22.55C4.94,73.68.85,59.69.15,51.56c-.48-6.22-.81-27.42,16.02-41.37C29.55-.8,48.72-3.08,66.05,4.23c5.24,2.19,7.68,8.24,5.48,13.45-2.23,5.25-8.22,7.6-13.46,5.48-10.4-4.39-21.4-3.24-28.81,2.86-9.17,7.6-8.92,20.17-8.61,23.84.59,7.25,10.25,20.71,26.46,36.95,5.97,5.99,13.73,13.27,23.39,21.13,5.18,4.33,12.65,4.15,17.57-.32,4.82-4.33,10.09-9.37,15.66-15.09,24.32-24.94,36.92-38.5,34.85-50.73-1.76-10.59-13.06-17.05-13.16-17.1-7.19-4.01-16.37-4.75-22.39-1.82-11.47,5.7-17.48,26.99-7.73,48.51,2.32,5.16.05,11.24-5.14,13.58-5.13,2.33-11.26.03-13.59-5.13-15.25-33.68-2.86-65.36,17.37-75.37,12.07-5.97,28.36-5.07,41.55,2.29,2.03,1.15,20.09,11.81,23.38,31.66,3.67,21.99-12.16,39.42-36.78,64.7Z"/>
    </g>
  </g>
</svg>