<?xml version="1.0" encoding="UTF-8"?>
<svg id="Layer_2" data-name="Layer 2" xmlns="http://www.w3.org/2000/svg" viewBox="0 0 525.48 131.58">
  <defs>
    <style>
      .cls-1 {
        fill: #1b512d;
      }

      .cls-1, .cls-2, .cls-3 {
        stroke-width: 0px;
      }

      .cls-2 {
        fill: #002415;
      }

      .cls-3 {
        fill: #b1cf5f;
      }
    </style>
  </defs>
  <g id="Layer_1-2" data-name="Layer 1">
    <g>
      <g>
        <path class="cls-3" d="m195.17,106c-9.82,13.27-24.21,21.88-40.56,24.33-3.08.45-6.17.67-9.23.67-13.83,0-27.11-4.58-38.02-13.2,3.53-3.32,7.24-6.96,11.08-10.9,1.24-1.27,2.45-2.52,3.65-3.74,8.56,5.94,19.07,8.43,29.53,6.84,10.88-1.6,20.5-7.39,27.08-16.22,6.55-8.85,9.28-19.71,7.65-30.63-.88-5.97-2.97-11.53-6.26-16.56-3.11-4.73-1.8-11.11,2.97-14.21,4.66-3.11,11.13-1.82,14.21,2.97,4.95,7.52,8.11,15.86,9.42,24.8,2.41,16.32-1.66,32.62-11.51,45.86Z"/>
        <path class="cls-1" d="m122.08,103.15c-1.19,1.23-2.41,2.47-3.65,3.74-3.84,3.95-7.55,7.58-11.08,10.9-1.88,1.79-3.72,3.47-5.48,5.07-6.35,5.78-14.53,8.72-22.75,8.72-7.68,0-15.36-2.57-21.64-7.71-8.7-7.09-17.1-14.66-24.94-22.55C4.94,73.68.85,59.69.15,51.56c-.48-6.22-.81-27.42,16.02-41.37C29.55-.8,48.72-3.08,66.05,4.23c5.24,2.19,7.68,8.24,5.48,13.45-2.23,5.25-8.22,7.6-13.46,5.48-10.4-4.39-21.4-3.24-28.81,2.86-9.17,7.6-8.92,20.17-8.61,23.84.59,7.25,10.25,20.71,26.46,36.95,5.97,5.99,13.73,13.27,23.39,21.13,5.18,4.33,12.65,4.15,17.57-.32,4.82-4.33,10.09-9.37,15.66-15.09,24.32-24.94,36.92-38.5,34.85-50.73-1.76-10.59-13.06-17.05-13.16-17.1-7.19-4.01-16.37-4.75-22.39-1.82-11.47,5.7-17.48,26.99-7.73,48.51,2.32,5.16.05,11.24-5.14,13.58-5.13,2.33-11.26.03-13.59-5.13-15.25-33.68-2.86-65.36,17.37-75.37,12.07-5.97,28.36-5.07,41.55,2.29,2.03,1.15,20.09,11.81,23.38,31.66,3.67,21.99-12.16,39.42-36.78,64.7Z"/>
      </g>
      <g>
        <polygon class="cls-2" points="270.95 77.12 270.56 77.12 265.38 46.38 251.35 46.38 246.02 77.12 245.62 77.12 240.84 46.38 227.35 46.38 237.15 87.79 253.54 87.79 257.93 59.87 258.33 59.87 262.56 87.79 279.11 87.79 288.75 46.38 276.13 46.38 270.95 77.12"/>
        <path class="cls-2" d="m331.02,73.12l-11.6-.62c.04,1.1-.03,2.08-.24,2.95-.21.85-.57,1.59-1.1,2.2-.52.6-1.2,1.06-2.04,1.37-.83.31-1.88.46-3.14.46-2.92,0-5.1-.96-6.51-2.9-1.14-1.56-1.81-3.9-2.03-6.97l25.63-.4c.58-3.35.64-6.46.2-9.33-.44-2.87-1.42-5.42-2.95-7.61-1.51-2.2-3.54-3.91-6.07-5.13-2.54-1.23-5.58-1.85-9.14-1.85s-6.6.61-9.13,1.85c-2.54,1.22-4.6,2.9-6.2,5.01-1.59,2.12-2.78,4.54-3.53,7.25-.76,2.72-1.14,5.57-1.14,8.55,0,2.78.35,5.42,1.06,7.92.71,2.51,1.87,4.75,3.49,6.71,1.61,1.95,3.75,3.49,6.39,4.62,2.64,1.12,5.92,1.69,9.85,1.69,3.71,0,6.78-.51,9.2-1.5,2.44-.99,4.33-2.27,5.69-3.84,1.36-1.56,2.29-3.26,2.79-5.09.5-1.84.67-3.61.51-5.34Zm-26.03-12.19c.46-1.81,1.28-3.2,2.43-4.19,1.15-.99,2.69-1.49,4.62-1.49s3.27.42,4.32,1.29c1.05.87,1.76,2.12,2.15,3.77.16.63.23,1.35.29,2.1l-14.17.27c.1-.61.21-1.2.36-1.75Z"/>
        <path class="cls-2" d="m373.68,80.18c-1.1-1.52-2.47-2.6-4.12-3.25-1.65-.65-3.29-1.04-4.94-1.18-1.65-.13-3.02-.19-4.12-.19h-12.54c-.53,0-.98-.03-1.37-.08-.4-.05-.7-.14-.91-.27-.21-.13-.32-.33-.32-.58,0-.42.25-.82.75-1.22.5-.39,1.19-.77,2.08-1.13.83.2,1.84.36,3.02.46,1.17.11,2.33.16,3.48.16,3.77,0,6.88-.43,9.33-1.29,2.46-.87,4.28-2.06,5.46-3.58,1.17-1.51,1.76-3.24,1.76-5.17s-.77-3.59-2.31-4.98c-1.54-1.38-4.49-2.36-8.82-2.93v-.63l14.2,1.81v-9.72h-20.63c-3.82,0-7.06.56-9.72,1.69-2.67,1.12-4.7,2.68-6.08,4.67-1.38,1.98-2.08,4.34-2.08,7.05,0,3.09.83,5.59,2.51,7.54,1.67,1.93,3.92,3.24,6.75,3.92v.55c-3.14,0-5.4.6-6.79,1.81-1.38,1.2-2.08,2.56-2.08,4.07,0,1.63.76,2.89,2.28,3.81,1.51.91,3.6,1.37,6.27,1.37v.39c-3.5.52-6.16,1.48-8,2.86-1.83,1.38-2.74,3.23-2.74,5.53,0,1.67.58,3.15,1.73,4.42,1.15,1.29,3.08,2.29,5.8,3.02,2.72.74,6.41,1.1,11.06,1.1,5.17,0,9.44-.49,12.78-1.45,3.35-.97,5.84-2.45,7.48-4.43,1.65-1.98,2.47-4.55,2.47-7.68,0-2.77-.55-4.91-1.65-6.43Zm-23.72-24.51c.97-1.12,2.26-1.68,3.88-1.68s2.98.56,3.92,1.68c.94,1.13,1.41,2.61,1.41,4.43s-.46,3.27-1.37,4.32c-.92,1.05-2.21,1.56-3.88,1.56-1.15,0-2.13-.23-2.93-.71-.81-.46-1.43-1.14-1.85-2.04-.42-.89-.62-1.93-.62-3.14,0-1.83.47-3.3,1.45-4.43Zm13.68,32.04c-.52.42-1.61.75-3.29.98-1.67.23-4.25.35-7.76.35-1.73,0-3.23-.05-4.51-.15-1.29-.11-2.28-.33-2.99-.68-.7-.34-1.06-.87-1.06-1.6,0-.62.31-1.18.91-1.69.59-.5,1.73-1.02,3.41-1.6h10.59c.36,0,.84.01,1.45.04.6.02,1.21.13,1.85.32.62.18,1.15.48,1.56.9.42.42.63.99.63,1.72,0,.53-.26,1-.79,1.41Z"/>
        <path class="cls-2" d="m392.07,32.98c-1.28-1.05-3.15-1.57-5.61-1.57s-4.25.51-5.53,1.53c-1.28,1.02-1.92,2.52-1.92,4.51s.64,3.41,1.92,4.43c1.28,1.02,3.12,1.53,5.53,1.53s4.32-.52,5.61-1.57c1.28-1.05,1.92-2.51,1.92-4.39s-.64-3.42-1.92-4.47Z"/>
        <rect class="cls-2" x="380.19" y="46.38" width="12.7" height="41.41"/>
        <path class="cls-2" d="m437.35,73.12l-11.6-.62c.05,1.1-.03,2.08-.23,2.95-.21.85-.58,1.59-1.1,2.2-.53.6-1.2,1.06-2.04,1.37-.84.31-1.89.46-3.15.46-2.92,0-5.09-.96-6.5-2.9-1.14-1.56-1.82-3.9-2.04-6.97l25.64-.4c.57-3.35.63-6.46.19-9.33-.44-2.87-1.43-5.42-2.93-7.61-1.52-2.2-3.55-3.91-6.08-5.13-2.53-1.23-5.58-1.85-9.13-1.85s-6.61.61-9.14,1.85c-2.53,1.22-4.6,2.9-6.2,5.01-1.59,2.12-2.77,4.54-3.53,7.25-.76,2.72-1.14,5.57-1.14,8.55,0,2.78.36,5.42,1.07,7.92.7,2.51,1.87,4.75,3.48,6.71,1.63,1.95,3.75,3.49,6.4,4.62,2.64,1.12,5.92,1.69,9.84,1.69s6.79-.51,9.22-1.5c2.43-.99,4.33-2.27,5.68-3.84,1.36-1.56,2.29-3.26,2.79-5.09.5-1.84.67-3.61.51-5.34Zm-26.03-12.19c.47-1.81,1.28-3.2,2.43-4.19,1.15-.99,2.69-1.49,4.63-1.49,1.83,0,3.26.42,4.31,1.29,1.05.87,1.76,2.12,2.16,3.77.15.63.23,1.35.27,2.1l-14.17.27c.11-.61.21-1.2.36-1.75Z"/>
        <path class="cls-2" d="m467.78,45.29c-2.98,0-5.44.65-7.37,1.96-1.93,1.31-3.42,3.28-4.47,5.92-1.05,2.64-1.73,6-2.04,10.08h-.63v-16.86h-10.74v41.41h12.7v-14.66c0-4.13.34-7.42,1.02-9.88.68-2.46,1.62-4.23,2.82-5.33,1.2-1.1,2.59-1.65,4.16-1.65,1.88,0,3.25.71,4.12,2.12.86,1.41,1.29,3.53,1.29,6.35v23.05h12.7v-24.7c0-5.91-1.14-10.35-3.41-13.33-2.27-2.98-5.66-4.47-10.15-4.47Z"/>
        <path class="cls-2" d="m525.42,73.12l-11.61-.62c.05,1.1-.02,2.08-.23,2.95-.21.85-.57,1.59-1.1,2.2-.52.6-1.2,1.06-2.04,1.37-.83.31-1.88.46-3.14.46-2.92,0-5.1-.96-6.51-2.9-1.14-1.56-1.82-3.9-2.03-6.97l25.63-.4c.58-3.35.64-6.46.2-9.33-.44-2.87-1.43-5.42-2.95-7.61-1.51-2.2-3.54-3.91-6.07-5.13-2.54-1.23-5.58-1.85-9.14-1.85s-6.6.61-9.13,1.85c-2.54,1.22-4.6,2.9-6.2,5.01-1.59,2.12-2.78,4.54-3.53,7.25-.76,2.72-1.14,5.57-1.14,8.55,0,2.78.35,5.42,1.06,7.92.71,2.51,1.87,4.75,3.49,6.71,1.62,1.95,3.75,3.49,6.39,4.62,2.64,1.12,5.92,1.69,9.84,1.69s6.79-.51,9.22-1.5c2.44-.99,4.33-2.27,5.69-3.84,1.36-1.56,2.29-3.26,2.79-5.09.5-1.84.67-3.61.51-5.34Zm-26.03-12.19c.46-1.81,1.28-3.2,2.43-4.19,1.15-.99,2.69-1.49,4.62-1.49s3.27.42,4.32,1.29c1.05.87,1.76,2.12,2.15,3.77.16.63.23,1.35.29,2.1l-14.17.27c.09-.61.21-1.2.36-1.75Z"/>
      </g>
    </g>
  </g>
</svg>